# Blender v2.76 (sub 0) OBJ File: 'Arm.blend'
# www.blender.org
mtllib Arm.mtl
o Plane
v 1.779925 -0.513030 0.005852
v -0.652726 0.095037 -0.000000
v 1.779925 0.036509 0.005852
v 0.028139 -0.571558 0.000000
v 0.320334 -0.546045 0.000000
v 0.563599 -0.535455 0.000000
v 0.806865 -0.575184 0.000000
v 1.050130 -0.527668 0.000000
v 1.293395 -0.495278 0.000000
v 1.536660 -0.498943 0.000000
v 1.536660 0.021999 -0.000000
v 1.293395 0.011786 -0.000000
v 1.050130 -0.042447 0.000000
v 0.806864 -0.056202 0.000000
v -0.166196 -0.192628 0.000000
v -0.409461 -0.192628 0.000000
v 2.091955 -0.192628 0.000000
v -0.331576 0.095037 -0.000000
v -0.409461 0.095037 -0.000000
v -0.652726 -0.071612 0.000000
v -0.604430 -0.238261 0.000000
v -0.463154 -0.404909 0.000000
v 1.981183 -0.404909 0.000000
v 2.091955 -0.238261 0.000000
v 1.981183 -0.071612 0.000000
v -0.356931 -0.421618 0.000000
v -0.409461 -0.238261 0.000000
v -0.409461 -0.071612 0.000000
v -0.166196 -0.384733 0.000000
v -0.166196 -0.238261 0.000000
v -0.166196 -0.071612 0.000000
v -0.004724 -0.348936 0.000000
v -0.004724 -0.238261 0.000000
v -0.064280 -0.105669 0.000000
v 0.320334 -0.404909 0.000000
v 0.320334 -0.238261 0.000000
v 0.320334 -0.071612 0.000000
v 0.563599 -0.404909 0.000000
v 0.563599 -0.238261 0.000000
v 0.563599 -0.071612 0.000000
v 0.806865 -0.404909 0.000000
v 0.806864 -0.238261 0.000000
v 0.806864 -0.071612 0.000000
v 1.050130 -0.404909 0.000000
v 1.050130 -0.238261 0.000000
v 1.050130 -0.071612 0.000000
v 1.293395 -0.404909 0.000000
v 1.293395 -0.238261 0.000000
v 1.293395 -0.071612 0.000000
v 1.536660 -0.404909 0.000000
v 1.536660 -0.238261 0.000000
v 1.536660 -0.071612 0.000000
v 0.685232 -0.493370 0.000000
v -0.587732 -0.192628 0.000000
v 0.685232 -0.404909 0.000000
v 0.685232 -0.238261 0.000000
v 0.685232 -0.071612 0.000000
v -0.034502 -0.209656 0.000000
v 0.320334 -0.192628 0.000000
v 0.563599 -0.192628 0.000000
v 0.806864 -0.192628 0.000000
v 1.050130 -0.192628 0.000000
v 1.293395 -0.192628 0.000000
v 1.536660 -0.192628 0.000000
v 0.685232 -0.192628 0.000000
v -0.492946 -0.321585 0.000000
v 2.062242 -0.321585 0.000000
v -0.383196 -0.329939 0.000000
v -0.166196 -0.311497 0.000000
v -0.004724 -0.293598 0.000000
v 0.320334 -0.321585 0.000000
v 0.563599 -0.321585 0.000000
v 0.806865 -0.321585 0.000000
v 1.050130 -0.321585 0.000000
v 1.293395 -0.321585 0.000000
v 1.737918 -0.321585 0.000000
v 0.685232 -0.321585 0.000000
v 1.779925 -0.513030 0.060802
v -0.652726 0.095037 0.066654
v 1.779925 0.036509 0.060802
v 0.028139 -0.571558 0.066654
v 0.320334 -0.546045 0.066654
v 0.563599 -0.535455 0.066654
v 0.806865 -0.575184 0.066654
v 1.050130 -0.527668 0.066654
v 1.293395 -0.495278 0.066654
v 1.536660 -0.498943 0.066654
v 1.536660 0.021999 0.066654
v 1.293395 0.011786 0.066654
v 1.050130 -0.042447 0.066654
v 0.806864 -0.056202 0.066654
v -0.166196 -0.192628 0.066654
v -0.409461 -0.192628 0.066654
v 2.091955 -0.192628 0.066654
v -0.331576 0.095037 0.066654
v -0.409461 0.095037 0.066654
v -0.652726 -0.071612 0.066654
v -0.604430 -0.238261 0.066654
v -0.463154 -0.404909 0.066654
v 1.981183 -0.404909 0.066654
v 2.091955 -0.238261 0.066654
v 1.981183 -0.071612 0.066654
v -0.356931 -0.421618 0.066654
v -0.409461 -0.238261 0.066654
v -0.409461 -0.071612 0.066654
v -0.166196 -0.384733 0.066654
v -0.166196 -0.238261 0.066654
v -0.166196 -0.071612 0.066654
v -0.004724 -0.348936 0.066654
v -0.004724 -0.238261 0.066654
v -0.064280 -0.105669 0.066654
v 0.320334 -0.404909 0.066654
v 0.320334 -0.238261 0.066654
v 0.320334 -0.071612 0.066654
v 0.563599 -0.404909 0.066654
v 0.563599 -0.238261 0.066654
v 0.563599 -0.071612 0.066654
v 0.806865 -0.404909 0.066654
v 0.806864 -0.238261 0.066654
v 0.806864 -0.071612 0.066654
v 1.050130 -0.404909 0.066654
v 1.050130 -0.238261 0.066654
v 1.050130 -0.071612 0.066654
v 1.293395 -0.404909 0.066654
v 1.293395 -0.238261 0.066654
v 1.293395 -0.071612 0.066654
v 1.536660 -0.404909 0.066654
v 1.536660 -0.238261 0.066654
v 1.536660 -0.071612 0.066654
v 0.685232 -0.493370 0.066654
v -0.587732 -0.192628 0.066654
v 0.685232 -0.404909 0.066654
v 0.685232 -0.238261 0.066654
v 0.685232 -0.071612 0.066654
v -0.034502 -0.209656 0.066654
v 0.320334 -0.192628 0.066654
v 0.563599 -0.192628 0.066654
v 0.806864 -0.192628 0.066654
v 1.050130 -0.192628 0.066654
v 1.293395 -0.192628 0.066654
v 1.536660 -0.192628 0.066654
v 0.685232 -0.192628 0.066654
v -0.492946 -0.321585 0.066654
v 2.062242 -0.321585 0.066654
v -0.383196 -0.329939 0.066654
v -0.166196 -0.311497 0.066654
v -0.004724 -0.293598 0.066654
v 0.320334 -0.321585 0.066654
v 0.563599 -0.321585 0.066654
v 0.806865 -0.321585 0.066654
v 1.050130 -0.321585 0.066654
v 1.293395 -0.321585 0.066654
v 1.536660 -0.321585 0.066654
v 0.685232 -0.321585 0.066654
v 2.062242 -0.132120 0.000000
v -0.409461 -0.132120 0.000000
v -0.166196 -0.132120 0.000000
v -0.049391 -0.157663 0.000000
v 0.320334 -0.132120 0.000000
v 0.563599 -0.132120 0.000000
v 0.806864 -0.132120 0.000000
v 1.050130 -0.132120 0.000000
v 1.293395 -0.132120 0.000000
v 1.536660 -0.132120 0.000000
v 0.685232 -0.132120 0.000000
v -0.620229 -0.132120 0.000000
v 2.062242 -0.132120 0.066654
v -0.409461 -0.132120 0.066654
v -0.166196 -0.132120 0.066654
v -0.049391 -0.157663 0.066654
v 0.320334 -0.132120 0.066654
v 0.563599 -0.132120 0.066654
v 0.806864 -0.132120 0.066654
v 1.050130 -0.132120 0.066654
v 1.293395 -0.132120 0.066654
v 1.536660 -0.132120 0.066654
v 0.685232 -0.132120 0.066654
v -0.620229 -0.132120 0.066654
vn 0.007700 0.036700 -0.999300
vn 0.000000 -0.000000 -1.000000
vn 0.007800 -0.036600 -0.999300
vn 0.007700 0.036700 0.999300
vn 0.000000 0.000000 1.000000
vn 0.007800 -0.036600 0.999300
vn -1.000000 -0.000000 0.000000
vn 0.473300 0.880900 -0.000000
vn -0.939100 0.343600 0.000000
vn -0.155400 -0.987900 0.000000
vn 0.000000 1.000000 -0.000000
vn -0.881000 -0.473100 0.000000
vn -0.941600 -0.336700 0.000000
vn 0.087000 -0.996200 0.000000
vn 0.473300 -0.880900 0.000000
vn -0.598700 -0.801000 0.000000
vn 0.043500 -0.999100 0.000000
vn 0.941900 -0.335900 0.000000
vn 0.716800 -0.697300 0.000000
vn -0.558100 -0.829800 0.000000
vn 0.598200 0.801400 0.000000
vn 0.709800 0.704400 -0.000000
vn 0.191700 -0.981500 0.000000
vn 0.132000 -0.991300 0.000000
vn 0.327000 -0.945000 0.000000
vn -0.088200 0.996100 -0.000000
vn -0.015100 -0.999900 0.000000
vn 1.000000 0.000000 0.000000
vn 0.216400 -0.976300 0.000000
vn -0.059500 0.998200 -0.000000
vn -0.041900 0.999100 -0.000000
vn -0.989300 -0.146000 0.000000
vn -0.217600 0.976000 -0.000000
vn 0.316900 0.948400 -0.000000
vn 0.189900 -0.981800 0.000000
vn -0.056500 0.998400 -0.000000
vn -0.057800 -0.998300 0.000000
vn 0.897600 0.440800 0.000000
usemtl None
s off
f 52//1 11//1 3//1 25//1
f 20//2 2//2 19//2 28//2
f 28//2 19//2 18//2 31//2
f 30//2 15//2 58//2 33//2
f 27//2 16//2 15//2 30//2
f 21//2 54//2 16//2 27//2
f 51//2 64//2 17//2 24//2
f 43//2 14//2 13//2 46//2
f 46//2 13//2 12//2 49//2
f 49//2 12//2 11//2 52//2
f 9//2 47//2 50//2 10//2
f 75//2 48//2 51//2 76//2
f 163//2 49//2 52//2 164//2
f 8//2 44//2 47//2 9//2
f 74//2 45//2 48//2 75//2
f 162//2 46//2 49//2 163//2
f 7//2 41//2 44//2 8//2
f 73//2 42//2 45//2 74//2
f 161//2 43//2 46//2 162//2
f 53//2 55//2 41//2 7//2
f 77//2 56//2 42//2 73//2
f 165//2 57//2 43//2 161//2
f 5//2 35//2 38//2 6//2
f 71//2 36//2 39//2 72//2
f 159//2 37//2 40//2 160//2
f 4//2 32//2 35//2 5//2
f 70//2 33//2 36//2 71//2
f 158//2 34//2 37//2 159//2
f 69//2 30//2 33//2 70//2
f 157//2 31//2 34//2 158//2
f 68//2 27//2 30//2 69//2
f 156//2 28//2 31//2 157//2
f 66//2 21//2 27//2 68//2
f 166//2 20//2 28//2 156//2
f 10//3 50//3 23//3 1//3
f 76//2 51//2 24//2 67//2
f 164//2 52//2 25//2 155//2
f 160//2 40//2 57//2 165//2
f 72//2 39//2 56//2 77//2
f 6//2 38//2 55//2 53//2
f 39//2 60//2 65//2 56//2
f 33//2 58//2 59//2 36//2
f 36//2 59//2 60//2 39//2
f 56//2 65//2 61//2 42//2
f 42//2 61//2 62//2 45//2
f 45//2 62//2 63//2 48//2
f 48//2 63//2 64//2 51//2
f 38//2 72//2 77//2 55//2
f 50//2 76//2 67//2 23//2
f 22//2 66//2 68//2 26//2
f 26//2 68//2 69//2 29//2
f 29//2 69//2 70//2 32//2
f 32//2 70//2 71//2 35//2
f 35//2 71//2 72//2 38//2
f 55//2 77//2 73//2 41//2
f 41//2 73//2 74//2 44//2
f 44//2 74//2 75//2 47//2
f 47//2 75//2 76//2 50//2
f 129//4 102//4 80//4 88//4
f 97//5 105//5 96//5 79//5
f 105//5 108//5 95//5 96//5
f 107//5 110//5 135//5 92//5
f 104//5 107//5 92//5 93//5
f 98//5 104//5 93//5 131//5
f 128//5 101//5 94//5 141//5
f 120//5 123//5 90//5 91//5
f 123//5 126//5 89//5 90//5
f 126//5 129//5 88//5 89//5
f 86//5 87//5 127//5 124//5
f 152//5 153//5 128//5 125//5
f 175//5 176//5 129//5 126//5
f 85//5 86//5 124//5 121//5
f 151//5 152//5 125//5 122//5
f 174//5 175//5 126//5 123//5
f 84//5 85//5 121//5 118//5
f 150//5 151//5 122//5 119//5
f 173//5 174//5 123//5 120//5
f 130//5 84//5 118//5 132//5
f 154//5 150//5 119//5 133//5
f 177//5 173//5 120//5 134//5
f 82//5 83//5 115//5 112//5
f 148//5 149//5 116//5 113//5
f 171//5 172//5 117//5 114//5
f 81//5 82//5 112//5 109//5
f 147//5 148//5 113//5 110//5
f 170//5 171//5 114//5 111//5
f 146//5 147//5 110//5 107//5
f 169//5 170//5 111//5 108//5
f 145//5 146//5 107//5 104//5
f 168//5 169//5 108//5 105//5
f 143//5 145//5 104//5 98//5
f 178//5 168//5 105//5 97//5
f 87//6 78//6 100//6 127//6
f 153//5 144//5 101//5 128//5
f 176//5 167//5 102//5 129//5
f 172//5 177//5 134//5 117//5
f 149//5 154//5 133//5 116//5
f 83//5 130//5 132//5 115//5
f 116//5 133//5 142//5 137//5
f 110//5 113//5 136//5 135//5
f 113//5 116//5 137//5 136//5
f 133//5 119//5 138//5 142//5
f 119//5 122//5 139//5 138//5
f 122//5 125//5 140//5 139//5
f 125//5 128//5 141//5 140//5
f 115//5 132//5 154//5 149//5
f 127//5 100//5 144//5 153//5
f 99//5 103//5 145//5 143//5
f 103//5 106//5 146//5 145//5
f 106//5 109//5 147//5 146//5
f 109//5 112//5 148//5 147//5
f 112//5 115//5 149//5 148//5
f 132//5 118//5 150//5 154//5
f 118//5 121//5 151//5 150//5
f 121//5 124//5 152//5 151//5
f 124//5 127//5 153//5 152//5
f 2//7 20//7 97//7 79//7
f 25//8 3//8 80//8 102//8
f 54//9 21//9 98//9 131//9
f 22//10 26//10 103//10 99//10
f 57//11 40//11 117//11 134//11
f 19//11 2//11 79//11 96//11
f 166//12 54//12 131//12 178//12
f 66//13 22//13 99//13 143//13
f 4//14 5//14 82//14 81//14
f 1//15 23//15 100//15 78//15
f 18//11 19//11 96//11 95//11
f 21//16 66//16 143//16 98//16
f 5//17 6//17 83//17 82//17
f 67//18 24//18 101//18 144//18
f 23//19 67//19 144//19 100//19
f 40//11 37//11 114//11 117//11
f 53//20 7//20 84//20 130//20
f 155//21 25//21 102//21 167//21
f 31//22 18//22 95//22 108//22
f 7//23 8//23 85//23 84//23
f 8//24 9//24 86//24 85//24
f 6//25 53//25 130//25 83//25
f 37//26 34//26 111//26 114//26
f 9//27 10//27 87//27 86//27
f 24//28 17//28 94//28 101//28
f 29//29 32//29 109//29 106//29
f 3//30 11//30 88//30 80//30
f 14//7 43//7 120//7 91//7
f 11//31 12//31 89//31 88//31
f 32//32 4//32 81//32 109//32
f 12//33 13//33 90//33 89//33
f 34//34 31//34 108//34 111//34
f 43//11 57//11 134//11 120//11
f 26//35 29//35 106//35 103//35
f 13//36 14//36 91//36 90//36
f 10//37 1//37 78//37 87//37
f 17//38 155//38 167//38 94//38
f 20//12 166//12 178//12 97//12
f 137//5 142//5 177//5 172//5
f 141//5 94//5 167//5 176//5
f 131//5 93//5 168//5 178//5
f 93//5 92//5 169//5 168//5
f 92//5 135//5 170//5 169//5
f 135//5 136//5 171//5 170//5
f 136//5 137//5 172//5 171//5
f 142//5 138//5 173//5 177//5
f 138//5 139//5 174//5 173//5
f 139//5 140//5 175//5 174//5
f 140//5 141//5 176//5 175//5
f 60//2 160//2 165//2 65//2
f 64//2 164//2 155//2 17//2
f 54//2 166//2 156//2 16//2
f 16//2 156//2 157//2 15//2
f 15//2 157//2 158//2 58//2
f 58//2 158//2 159//2 59//2
f 59//2 159//2 160//2 60//2
f 65//2 165//2 161//2 61//2
f 61//2 161//2 162//2 62//2
f 62//2 162//2 163//2 63//2
f 63//2 163//2 164//2 64//2
