# Blender v2.78 (sub 0) OBJ File: 'Can.blend'
# www.blender.org
mtllib Data.mtl
o Cylinder
v 0.000000 -1.000000 -1.000000
v 0.000000 1.612866 -1.000000
v 0.195090 -1.000000 -0.980785
v 0.195090 1.612866 -0.980785
v 0.382683 -1.000000 -0.923880
v 0.382683 1.612866 -0.923880
v 0.555570 -1.000000 -0.831470
v 0.555570 1.612866 -0.831470
v 0.707107 -1.000000 -0.707107
v 0.707107 1.612866 -0.707107
v 0.831470 -1.000000 -0.555570
v 0.831470 1.612866 -0.555570
v 0.923880 -1.000000 -0.382683
v 0.923880 1.612866 -0.382683
v 0.980785 -1.000000 -0.195090
v 0.980785 1.612866 -0.195090
v 1.000000 -1.000000 -0.000000
v 1.000000 1.612866 -0.000000
v 0.980785 -1.000000 0.195090
v 0.980785 1.612866 0.195090
v 0.923880 -1.000000 0.382683
v 0.923880 1.612866 0.382683
v 0.831470 -1.000000 0.555570
v 0.831470 1.612866 0.555570
v 0.707107 -1.000000 0.707107
v 0.707107 1.612866 0.707107
v 0.555570 -1.000000 0.831470
v 0.555570 1.612866 0.831470
v 0.382683 -1.000000 0.923880
v 0.382683 1.612866 0.923880
v 0.195090 -1.000000 0.980785
v 0.195090 1.612866 0.980785
v -0.000000 -1.000000 1.000000
v -0.000000 1.612866 1.000000
v -0.195091 -1.000000 0.980785
v -0.195091 1.612866 0.980785
v -0.382684 -1.000000 0.923879
v -0.382684 1.612866 0.923879
v -0.555571 -1.000000 0.831469
v -0.555571 1.612866 0.831469
v -0.707107 -1.000000 0.707106
v -0.707107 1.612866 0.707106
v -0.831470 -1.000000 0.555570
v -0.831470 1.612866 0.555570
v -0.923880 -1.000000 0.382683
v -0.923880 1.612866 0.382683
v -0.980785 -1.000000 0.195089
v -0.980785 1.612866 0.195089
v -1.000000 -1.000000 -0.000001
v -1.000000 1.612866 -0.000001
v -0.980785 -1.000000 -0.195091
v -0.980785 1.612866 -0.195091
v -0.923879 -1.000000 -0.382684
v -0.923879 1.612866 -0.382684
v -0.831469 -1.000000 -0.555571
v -0.831469 1.612866 -0.555571
v -0.707106 -1.000000 -0.707108
v -0.707106 1.612866 -0.707108
v -0.555569 -1.000000 -0.831470
v -0.555569 1.612866 -0.831470
v -0.382682 -1.000000 -0.923880
v -0.382682 1.612866 -0.923880
v -0.195089 -1.000000 -0.980786
v -0.195089 1.612866 -0.980786
v 0.175581 1.612866 -0.882707
v 0.000000 1.612866 -0.900000
v 0.344415 1.612866 -0.831492
v 0.500013 1.612866 -0.748323
v 0.636396 1.612866 -0.636396
v 0.748323 1.612866 -0.500013
v 0.831492 1.612866 -0.344415
v 0.882707 1.612866 -0.175581
v 0.900000 1.612866 -0.000000
v 0.882707 1.612866 0.175581
v 0.831492 1.612866 0.344415
v 0.748323 1.612866 0.500013
v 0.636396 1.612866 0.636396
v 0.500013 1.612866 0.748323
v 0.344415 1.612866 0.831492
v 0.175581 1.612866 0.882707
v -0.000000 1.612866 0.900000
v -0.175582 1.612866 0.882707
v -0.344415 1.612866 0.831491
v -0.500014 1.612866 0.748322
v -0.636396 1.612866 0.636396
v -0.748323 1.612866 0.500013
v -0.831492 1.612866 0.344414
v -0.882707 1.612866 0.175580
v -0.900000 1.612866 -0.000001
v -0.882707 1.612866 -0.175582
v -0.831491 1.612866 -0.344416
v -0.748322 1.612866 -0.500014
v -0.636395 1.612866 -0.636397
v -0.500012 1.612866 -0.748323
v -0.344414 1.612866 -0.831492
v -0.175580 1.612866 -0.882707
v 0.175581 1.562866 -0.882707
v 0.000000 1.562866 -0.900000
v 0.344415 1.562866 -0.831492
v 0.500013 1.562866 -0.748323
v 0.636396 1.562866 -0.636396
v 0.748323 1.562866 -0.500013
v 0.831492 1.562866 -0.344415
v 0.882707 1.562866 -0.175581
v 0.900000 1.562866 -0.000000
v 0.882707 1.562866 0.175581
v 0.831492 1.562866 0.344415
v 0.748323 1.562866 0.500013
v 0.636396 1.562866 0.636396
v 0.500013 1.562866 0.748323
v 0.344415 1.562866 0.831492
v 0.175581 1.562866 0.882707
v -0.000000 1.562866 0.900000
v -0.175582 1.562866 0.882707
v -0.344415 1.562866 0.831491
v -0.500014 1.562866 0.748322
v -0.636396 1.562866 0.636396
v -0.748323 1.562866 0.500013
v -0.831492 1.562866 0.344414
v -0.882707 1.562866 0.175580
v -0.900000 1.562866 -0.000001
v -0.882707 1.562866 -0.175582
v -0.831491 1.562866 -0.344416
v -0.748322 1.562866 -0.500014
v -0.636395 1.562866 -0.636397
v -0.500012 1.562866 -0.748323
v -0.344414 1.562866 -0.831492
v -0.175580 1.562866 -0.882707
v 0.000000 -1.000000 -0.900000
v 0.175581 -1.000000 -0.882707
v 0.344415 -1.000000 -0.831492
v 0.500013 -1.000000 -0.748323
v 0.636396 -1.000000 -0.636396
v 0.748323 -1.000000 -0.500013
v 0.831492 -1.000000 -0.344415
v 0.882707 -1.000000 -0.175581
v 0.900000 -1.000000 -0.000000
v 0.882707 -1.000000 0.175581
v 0.831492 -1.000000 0.344415
v 0.748323 -1.000000 0.500013
v 0.636396 -1.000000 0.636396
v 0.500013 -1.000000 0.748323
v 0.344415 -1.000000 0.831492
v 0.175581 -1.000000 0.882707
v -0.000000 -1.000000 0.900000
v -0.175582 -1.000000 0.882707
v -0.344415 -1.000000 0.831491
v -0.500014 -1.000000 0.748322
v -0.636396 -1.000000 0.636396
v -0.748323 -1.000000 0.500013
v -0.831492 -1.000000 0.344414
v -0.882707 -1.000000 0.175580
v -0.900000 -1.000000 -0.000001
v -0.882707 -1.000000 -0.175582
v -0.831491 -1.000000 -0.344416
v -0.748322 -1.000000 -0.500014
v -0.636395 -1.000000 -0.636397
v -0.500012 -1.000000 -0.748323
v -0.344414 -1.000000 -0.831492
v -0.175580 -1.000000 -0.882707
v 0.000000 -0.950000 -0.900000
v 0.175581 -0.950000 -0.882707
v 0.344415 -0.950000 -0.831492
v 0.500013 -0.950000 -0.748323
v 0.636396 -0.950000 -0.636396
v 0.748323 -0.950000 -0.500013
v 0.831492 -0.950000 -0.344415
v 0.882707 -0.950000 -0.175581
v 0.900000 -0.950000 -0.000000
v 0.882707 -0.950000 0.175581
v 0.831492 -0.950000 0.344415
v 0.748323 -0.950000 0.500013
v 0.636396 -0.950000 0.636396
v 0.500013 -0.950000 0.748323
v 0.344415 -0.950000 0.831492
v 0.175581 -0.950000 0.882707
v -0.000000 -0.950000 0.900000
v -0.175582 -0.950000 0.882707
v -0.344415 -0.950000 0.831491
v -0.500014 -0.950000 0.748322
v -0.636396 -0.950000 0.636396
v -0.748323 -0.950000 0.500013
v -0.831492 -0.950000 0.344414
v -0.882707 -0.950000 0.175580
v -0.900000 -0.950000 -0.000001
v -0.882707 -0.950000 -0.175582
v -0.831491 -0.950000 -0.344416
v -0.748322 -0.950000 -0.500014
v -0.636395 -0.950000 -0.636397
v -0.500012 -0.950000 -0.748323
v -0.344414 -0.950000 -0.831492
v -0.175580 -0.950000 -0.882707
vt 0.6125 0.0002
vt 0.6125 0.4083
vt 0.5819 0.4083
vt 0.5819 0.0002
vt 0.5513 0.4083
vt 0.5513 0.0002
vt 0.5206 0.4083
vt 0.5206 0.0002
vt 0.4900 0.4083
vt 0.4900 0.0002
vt 0.4594 0.4083
vt 0.4594 0.0002
vt 0.4288 0.4083
vt 0.4288 0.0002
vt 0.3982 0.4083
vt 0.3982 0.0002
vt 0.3676 0.4083
vt 0.3676 0.0002
vt 0.3370 0.4083
vt 0.3370 0.0002
vt 0.3064 0.4083
vt 0.3064 0.0002
vt 0.2758 0.4083
vt 0.2757 0.0002
vt 0.2451 0.4083
vt 0.2451 0.0002
vt 0.2145 0.4083
vt 0.2145 0.0002
vt 0.1839 0.4083
vt 0.1839 0.0002
vt 0.1533 0.4083
vt 0.1533 0.0002
vt 0.1227 0.4083
vt 0.1227 0.0002
vt 0.0921 0.4083
vt 0.0921 0.0002
vt 0.0615 0.4083
vt 0.0615 0.0002
vt 0.0309 0.4083
vt 0.0309 0.0002
vt 0.0002 0.4083
vt 0.0002 0.0002
vt 0.9798 0.0002
vt 0.9798 0.4083
vt 0.9492 0.4083
vt 0.9492 0.0002
vt 0.9186 0.4083
vt 0.9186 0.0002
vt 0.8880 0.4083
vt 0.8880 0.0002
vt 0.8574 0.4083
vt 0.8574 0.0002
vt 0.8268 0.4083
vt 0.8268 0.0002
vt 0.7962 0.4083
vt 0.7962 0.0002
vt 0.7655 0.4083
vt 0.7655 0.0002
vt 0.7349 0.4083
vt 0.7349 0.0002
vt 0.7043 0.4083
vt 0.7043 0.0002
vt 0.6737 0.4083
vt 0.6737 0.0002
vt 0.2764 0.6632
vt 0.2547 0.6849
vt 0.2448 0.6728
vt 0.2643 0.6533
vt 0.6431 0.4083
vt 0.6431 0.0002
vt 0.3115 0.5488
vt 0.3175 0.5188
vt 0.3324 0.5233
vt 0.3271 0.5504
vt 0.7014 0.6828
vt 0.6770 0.6668
vt 0.6821 0.6603
vt 0.7052 0.6756
vt 0.2293 0.4264
vt 0.2547 0.4434
vt 0.2448 0.4555
vt 0.2219 0.4402
vt 0.0062 0.5188
vt 0.0179 0.4905
vt 0.0317 0.4979
vt 0.0212 0.5233
vt 0.1710 0.7195
vt 0.1403 0.7195
vt 0.1419 0.7040
vt 0.1694 0.7040
vt 0.1103 0.7136
vt 0.1148 0.6986
vt 0.3051 0.5188
vt 0.3111 0.5488
vt 0.2955 0.5504
vt 0.2901 0.5233
vt 0.0820 0.4264
vt 0.1103 0.4147
vt 0.1148 0.4297
vt 0.0894 0.4402
vt 0.0349 0.6632
vt 0.0179 0.6378
vt 0.0317 0.6304
vt 0.0470 0.6533
vt 0.2934 0.6378
vt 0.2796 0.6304
vt 0.2010 0.4147
vt 0.1964 0.4297
vt 0.0002 0.5488
vt 0.0158 0.5504
vt 0.2010 0.7136
vt 0.1964 0.6986
vt 0.2934 0.4905
vt 0.2796 0.4979
vt 0.0566 0.4434
vt 0.0665 0.4555
vt 0.0566 0.6849
vt 0.0665 0.6728
vt 0.3051 0.6095
vt 0.2901 0.6049
vt 0.1710 0.4087
vt 0.1694 0.4243
vt 0.0002 0.5795
vt 0.0158 0.5779
vt 0.2293 0.7019
vt 0.2219 0.6881
vt 0.2764 0.4651
vt 0.2643 0.4750
vt 0.0349 0.4651
vt 0.0470 0.4750
vt 0.0820 0.7019
vt 0.0894 0.6881
vt 0.3111 0.5795
vt 0.2955 0.5779
vt 0.1403 0.4087
vt 0.1419 0.4243
vt 0.0062 0.6095
vt 0.0212 0.6049
vt 0.4341 0.9998
vt 0.4065 0.9998
vt 0.3795 0.9944
vt 0.3541 0.9838
vt 0.3312 0.9685
vt 0.3117 0.9491
vt 0.2964 0.9261
vt 0.2858 0.9007
vt 0.2805 0.8737
vt 0.2805 0.8461
vt 0.2858 0.8191
vt 0.2964 0.7936
vt 0.3117 0.7707
vt 0.3312 0.7513
vt 0.3541 0.7359
vt 0.3795 0.7254
vt 0.4065 0.7200
vt 0.4341 0.7200
vt 0.4611 0.7254
vt 0.4866 0.7359
vt 0.5095 0.7513
vt 0.5290 0.7707
vt 0.5443 0.7936
vt 0.5548 0.8191
vt 0.5602 0.8461
vt 0.5602 0.8737
vt 0.5548 0.9007
vt 0.5443 0.9261
vt 0.5290 0.9491
vt 0.5095 0.9685
vt 0.4866 0.9838
vt 0.4611 0.9944
vt 0.7577 0.4087
vt 0.7870 0.4090
vt 0.7863 0.4172
vt 0.7584 0.4169
vt 0.7286 0.6941
vt 0.7309 0.6862
vt 0.7289 0.4140
vt 0.7312 0.4219
vt 0.8882 0.6470
vt 0.8674 0.6674
vt 0.8622 0.6611
vt 0.8819 0.6418
vt 0.7574 0.6999
vt 0.7582 0.6917
vt 0.7016 0.4248
vt 0.7054 0.4320
vt 0.9046 0.6231
vt 0.8974 0.6192
vt 0.7868 0.7000
vt 0.7860 0.6918
vt 0.6772 0.4405
vt 0.6823 0.4469
vt 0.9158 0.5965
vt 0.9081 0.5941
vt 0.8157 0.6944
vt 0.8133 0.6866
vt 0.6563 0.4607
vt 0.6625 0.4659
vt 0.9216 0.5683
vt 0.9136 0.5676
vt 0.8429 0.6834
vt 0.8390 0.6762
vt 0.6399 0.4845
vt 0.6470 0.4884
vt 0.9216 0.5396
vt 0.9136 0.5404
vt 0.6286 0.5110
vt 0.6363 0.5134
vt 0.9159 0.5114
vt 0.9082 0.5139
vt 0.6228 0.5392
vt 0.6308 0.5400
vt 0.9046 0.4850
vt 0.8976 0.4889
vt 0.6228 0.5680
vt 0.6308 0.5671
vt 0.8882 0.4612
vt 0.8821 0.4665
vt 0.6286 0.5961
vt 0.6363 0.5937
vt 0.8674 0.4411
vt 0.8624 0.4475
vt 0.6399 0.6226
vt 0.6469 0.6186
vt 0.8429 0.4254
vt 0.8393 0.4327
vt 0.6562 0.6464
vt 0.6624 0.6412
vt 0.8158 0.4146
vt 0.8136 0.4225
vt 0.9089 0.8074
vt 0.9140 0.8361
vt 0.9059 0.8370
vt 0.9010 0.8097
vt 0.5405 0.4264
vt 0.5660 0.4434
vt 0.5561 0.4555
vt 0.5332 0.4402
vt 0.5123 0.4147
vt 0.5077 0.4297
vt 0.5876 0.6632
vt 0.5660 0.6849
vt 0.5561 0.6728
vt 0.5756 0.6533
vt 0.3462 0.6632
vt 0.3292 0.6378
vt 0.3430 0.6304
vt 0.3583 0.6533
vt 0.3933 0.4264
vt 0.4216 0.4147
vt 0.4261 0.4297
vt 0.4007 0.4402
vt 0.6223 0.5488
vt 0.6223 0.5795
vt 0.6068 0.5779
vt 0.6068 0.5504
vt 0.4516 0.7195
vt 0.4216 0.7136
vt 0.4261 0.6986
vt 0.4532 0.7040
vt 0.3292 0.4905
vt 0.3430 0.4979
vt 0.5876 0.4651
vt 0.5756 0.4750
vt 0.5405 0.7019
vt 0.5332 0.6881
vt 0.3175 0.6095
vt 0.3324 0.6049
vt 0.4516 0.4087
vt 0.4532 0.4243
vt 0.6164 0.6095
vt 0.6014 0.6049
vt 0.3933 0.7019
vt 0.4007 0.6881
vt 0.3462 0.4651
vt 0.3583 0.4750
vt 0.6047 0.4905
vt 0.5909 0.4979
vt 0.5123 0.7136
vt 0.5077 0.6986
vt 0.3115 0.5794
vt 0.3271 0.5779
vt 0.4822 0.4087
vt 0.4807 0.4243
vt 0.6047 0.6378
vt 0.5909 0.6304
vt 0.3679 0.6849
vt 0.3778 0.6728
vt 0.3679 0.4434
vt 0.3778 0.4555
vt 0.6164 0.5188
vt 0.6014 0.5233
vt 0.4822 0.7195
vt 0.4807 0.7040
vt 0.2064 0.7359
vt 0.2293 0.7513
vt 0.2487 0.7707
vt 0.2641 0.7936
vt 0.2746 0.8191
vt 0.2800 0.8461
vt 0.2800 0.8737
vt 0.2746 0.9007
vt 0.2641 0.9261
vt 0.2487 0.9491
vt 0.2293 0.9685
vt 0.2064 0.9838
vt 0.1809 0.9944
vt 0.1539 0.9998
vt 0.1263 0.9998
vt 0.0993 0.9944
vt 0.0739 0.9838
vt 0.0509 0.9685
vt 0.0315 0.9491
vt 0.0162 0.9261
vt 0.0056 0.9007
vt 0.0002 0.8737
vt 0.0002 0.8461
vt 0.0056 0.8191
vt 0.0162 0.7936
vt 0.0315 0.7707
vt 0.0509 0.7513
vt 0.0739 0.7359
vt 0.0993 0.7254
vt 0.1263 0.7200
vt 0.1539 0.7200
vt 0.1809 0.7254
vt 0.8131 0.7067
vt 0.8395 0.7181
vt 0.8356 0.7252
vt 0.8107 0.7144
vt 0.6557 0.9440
vt 0.6395 0.9195
vt 0.6467 0.9156
vt 0.6620 0.9388
vt 0.9149 0.8648
vt 0.9069 0.8643
vt 0.6284 0.8923
vt 0.6363 0.8899
vt 0.9102 0.8932
vt 0.9024 0.8911
vt 0.6228 0.8634
vt 0.6310 0.8626
vt 0.8998 0.9200
vt 0.8926 0.9164
vt 0.6230 0.8340
vt 0.6312 0.8348
vt 0.8842 0.9443
vt 0.8779 0.9393
vt 0.6288 0.8052
vt 0.6367 0.8075
vt 0.8641 0.9650
vt 0.8589 0.9589
vt 0.6402 0.7781
vt 0.6475 0.7820
vt 0.8403 0.9813
vt 0.8364 0.9742
vt 0.6566 0.7538
vt 0.6630 0.7590
vt 0.8136 0.9926
vt 0.8111 0.9848
vt 0.6773 0.7332
vt 0.6826 0.7395
vt 0.7851 0.9983
vt 0.7843 0.9902
vt 0.7015 0.7172
vt 0.7054 0.7243
vt 0.7561 0.9983
vt 0.7568 0.9902
vt 0.8632 0.7347
vt 0.8580 0.7409
vt 0.7281 0.7061
vt 0.7305 0.7138
vt 0.7275 0.9926
vt 0.7298 0.9847
vt 0.8831 0.7557
vt 0.8767 0.7607
vt 0.7562 0.7005
vt 0.7571 0.7085
vt 0.7005 0.9813
vt 0.7044 0.9740
vt 0.8985 0.7802
vt 0.8913 0.7839
vt 0.7850 0.7007
vt 0.7842 0.7087
vt 0.6763 0.9649
vt 0.6815 0.9585
vn 0.0980 0.0000 -0.9952
vn 0.2903 0.0000 -0.9569
vn 0.4714 0.0000 -0.8819
vn 0.6344 0.0000 -0.7730
vn 0.7730 0.0000 -0.6344
vn 0.8819 0.0000 -0.4714
vn 0.9569 0.0000 -0.2903
vn 0.9952 0.0000 -0.0980
vn 0.9952 0.0000 0.0980
vn 0.9569 0.0000 0.2903
vn 0.8819 0.0000 0.4714
vn 0.7730 0.0000 0.6344
vn 0.6344 0.0000 0.7730
vn 0.4714 0.0000 0.8819
vn 0.2903 0.0000 0.9569
vn 0.0980 0.0000 0.9952
vn -0.0980 0.0000 0.9952
vn -0.2903 0.0000 0.9569
vn -0.4714 0.0000 0.8819
vn -0.6344 0.0000 0.7730
vn -0.7730 0.0000 0.6344
vn -0.8819 0.0000 0.4714
vn -0.9569 0.0000 0.2903
vn -0.9952 0.0000 0.0980
vn -0.9952 0.0000 -0.0980
vn -0.9569 0.0000 -0.2903
vn -0.8819 0.0000 -0.4714
vn -0.7730 0.0000 -0.6344
vn -0.6344 0.0000 -0.7730
vn -0.4714 0.0000 -0.8819
vn 0.0000 1.0000 -0.0000
vn -0.2903 0.0000 -0.9569
vn -0.0980 0.0000 -0.9952
vn 0.0000 -1.0000 0.0000
usemtl Material.001
s off
f 1/1/1 2/2/1 4/3/1 3/4/1
f 3/4/2 4/3/2 6/5/2 5/6/2
f 5/6/3 6/5/3 8/7/3 7/8/3
f 7/8/4 8/7/4 10/9/4 9/10/4
f 9/10/5 10/9/5 12/11/5 11/12/5
f 11/12/6 12/11/6 14/13/6 13/14/6
f 13/14/7 14/13/7 16/15/7 15/16/7
f 15/16/8 16/15/8 18/17/8 17/18/8
f 17/18/9 18/17/9 20/19/9 19/20/9
f 19/20/10 20/19/10 22/21/10 21/22/10
f 21/22/11 22/21/11 24/23/11 23/24/11
f 23/24/12 24/23/12 26/25/12 25/26/12
f 25/26/13 26/25/13 28/27/13 27/28/13
f 27/28/14 28/27/14 30/29/14 29/30/14
f 29/30/15 30/29/15 32/31/15 31/32/15
f 31/32/16 32/31/16 34/33/16 33/34/16
f 33/34/17 34/33/17 36/35/17 35/36/17
f 35/36/18 36/35/18 38/37/18 37/38/18
f 37/38/19 38/37/19 40/39/19 39/40/19
f 39/40/20 40/39/20 42/41/20 41/42/20
f 41/43/21 42/44/21 44/45/21 43/46/21
f 43/46/22 44/45/22 46/47/22 45/48/22
f 45/48/23 46/47/23 48/49/23 47/50/23
f 47/50/24 48/49/24 50/51/24 49/52/24
f 49/52/25 50/51/25 52/53/25 51/54/25
f 51/54/26 52/53/26 54/55/26 53/56/26
f 53/56/27 54/55/27 56/57/27 55/58/27
f 55/58/28 56/57/28 58/59/28 57/60/28
f 57/60/29 58/59/29 60/61/29 59/62/29
f 59/62/30 60/61/30 62/63/30 61/64/30
f 12/65/31 10/66/31 69/67/31 70/68/31
f 61/64/32 62/63/32 64/69/32 63/70/32
f 63/70/33 64/69/33 2/2/33 1/1/33
f 45/71/34 47/72/34 152/73/34 151/74/34
f 91/75/10 90/76/10 122/77/10 123/78/10
f 30/79/31 28/80/31 78/81/31 79/82/31
f 48/83/31 46/84/31 87/85/31 88/86/31
f 4/87/31 2/88/31 66/89/31 65/90/31
f 2/88/31 64/91/31 96/92/31 66/89/31
f 22/93/31 20/94/31 74/95/31 75/96/31
f 40/97/31 38/98/31 83/99/31 84/100/31
f 58/101/31 56/102/31 92/103/31 93/104/31
f 14/105/31 12/65/31 70/68/31 71/106/31
f 32/107/31 30/79/31 79/82/31 80/108/31
f 50/109/31 48/83/31 88/86/31 89/110/31
f 6/111/31 4/87/31 65/90/31 67/112/31
f 24/113/31 22/93/31 75/96/31 76/114/31
f 42/115/31 40/97/31 84/100/31 85/116/31
f 60/117/31 58/101/31 93/104/31 94/118/31
f 16/119/31 14/105/31 71/106/31 72/120/31
f 34/121/31 32/107/31 80/108/31 81/122/31
f 52/123/31 50/109/31 89/110/31 90/124/31
f 8/125/31 6/111/31 67/112/31 68/126/31
f 26/127/31 24/113/31 76/114/31 77/128/31
f 44/129/31 42/115/31 85/116/31 86/130/31
f 62/131/31 60/117/31 94/118/31 95/132/31
f 18/133/31 16/119/31 72/120/31 73/134/31
f 36/135/31 34/121/31 81/122/31 82/136/31
f 54/137/31 52/123/31 90/124/31 91/138/31
f 10/66/31 8/125/31 68/126/31 69/67/31
f 28/80/31 26/127/31 77/128/31 78/81/31
f 46/84/31 44/129/31 86/130/31 87/85/31
f 64/91/31 62/131/31 95/132/31 96/92/31
f 20/94/31 18/133/31 73/134/31 74/95/31
f 38/98/31 36/135/31 82/136/31 83/99/31
f 56/102/31 54/137/31 91/138/31 92/103/31
f 97/139/31 98/140/31 128/141/31 127/142/31 126/143/31 125/144/31 124/145/31 123/146/31 122/147/31 121/148/31 120/149/31 119/150/31 118/151/31 117/152/31 116/153/31 115/154/31 114/155/31 113/156/31 112/157/31 111/158/31 110/159/31 109/160/31 108/161/31 107/162/31 106/163/31 105/164/31 104/165/31 103/166/31 102/167/31 101/168/31 100/169/31 99/170/31
f 78/171/29 77/172/29 109/173/29 110/174/29
f 92/175/11 91/75/11 123/78/11 124/176/11
f 79/177/30 78/171/30 110/174/30 111/178/30
f 65/179/17 66/180/17 98/181/17 97/182/17
f 93/183/12 92/175/12 124/176/12 125/184/12
f 80/185/32 79/177/32 111/178/32 112/186/32
f 67/187/18 65/179/18 97/182/18 99/188/18
f 94/189/13 93/183/13 125/184/13 126/190/13
f 81/191/33 80/185/33 112/186/33 113/192/33
f 68/193/19 67/187/19 99/188/19 100/194/19
f 95/195/14 94/189/14 126/190/14 127/196/14
f 82/197/1 81/191/1 113/192/1 114/198/1
f 69/199/20 68/193/20 100/194/20 101/200/20
f 96/201/15 95/195/15 127/196/15 128/202/15
f 83/203/2 82/197/2 114/198/2 115/204/2
f 70/205/21 69/199/21 101/200/21 102/206/21
f 66/180/16 96/201/16 128/202/16 98/181/16
f 84/207/3 83/203/3 115/204/3 116/208/3
f 71/209/22 70/205/22 102/206/22 103/210/22
f 85/211/4 84/207/4 116/208/4 117/212/4
f 72/213/23 71/209/23 103/210/23 104/214/23
f 86/215/5 85/211/5 117/212/5 118/216/5
f 73/217/24 72/213/24 104/214/24 105/218/24
f 87/219/6 86/215/6 118/216/6 119/220/6
f 74/221/25 73/217/25 105/218/25 106/222/25
f 88/223/7 87/219/7 119/220/7 120/224/7
f 75/225/26 74/221/26 106/222/26 107/226/26
f 89/227/8 88/223/8 120/224/8 121/228/8
f 76/229/27 75/225/27 107/226/27 108/230/27
f 90/76/9 89/227/9 121/228/9 122/77/9
f 77/172/28 76/229/28 108/230/28 109/173/28
f 133/231/21 134/232/21 166/233/21 165/234/21
f 1/235/34 3/236/34 130/237/34 129/238/34
f 63/239/34 1/235/34 129/238/34 160/240/34
f 19/241/34 21/242/34 139/243/34 138/244/34
f 37/245/34 39/246/34 148/247/34 147/248/34
f 55/249/34 57/250/34 157/251/34 156/252/34
f 11/253/34 13/254/34 135/255/34 134/256/34
f 29/257/34 31/258/34 144/259/34 143/260/34
f 47/72/34 49/261/34 153/262/34 152/73/34
f 3/236/34 5/263/34 131/264/34 130/237/34
f 21/242/34 23/265/34 140/266/34 139/243/34
f 39/246/34 41/267/34 149/268/34 148/247/34
f 57/250/34 59/269/34 158/270/34 157/251/34
f 13/254/34 15/271/34 136/272/34 135/255/34
f 31/258/34 33/273/34 145/274/34 144/259/34
f 49/261/34 51/275/34 154/276/34 153/262/34
f 5/263/34 7/277/34 132/278/34 131/264/34
f 23/265/34 25/279/34 141/280/34 140/266/34
f 41/267/34 43/281/34 150/282/34 149/268/34
f 59/269/34 61/283/34 159/284/34 158/270/34
f 15/271/34 17/285/34 137/286/34 136/272/34
f 33/273/34 35/287/34 146/288/34 145/274/34
f 51/275/34 53/289/34 155/290/34 154/276/34
f 7/277/34 9/291/34 133/292/34 132/278/34
f 25/279/34 27/293/34 142/294/34 141/280/34
f 43/281/34 45/71/34 151/74/34 150/282/34
f 61/283/34 63/239/34 160/240/34 159/284/34
f 17/285/34 19/241/34 138/244/34 137/286/34
f 35/287/34 37/245/34 147/248/34 146/288/34
f 53/289/34 55/249/34 156/252/34 155/290/34
f 9/291/34 11/253/34 134/256/34 133/292/34
f 27/293/34 29/257/34 143/260/34 142/294/34
f 161/295/34 162/296/34 163/297/34 164/298/34 165/299/34 166/300/34 167/301/34 168/302/34 169/303/34 170/304/34 171/305/34 172/306/34 173/307/34 174/308/34 175/309/34 176/310/34 177/311/34 178/312/34 179/313/34 180/314/34 181/315/34 182/316/34 183/317/34 184/318/34 185/319/34 186/320/34 187/321/34 188/322/34 189/323/34 190/324/34 191/325/34 192/326/34
f 160/327/16 129/328/16 161/329/16 192/330/16
f 147/331/3 148/332/3 180/333/3 179/334/3
f 134/232/22 135/335/22 167/336/22 166/233/22
f 148/332/4 149/337/4 181/338/4 180/333/4
f 135/335/23 136/339/23 168/340/23 167/336/23
f 149/337/5 150/341/5 182/342/5 181/338/5
f 136/339/24 137/343/24 169/344/24 168/340/24
f 150/341/6 151/345/6 183/346/6 182/342/6
f 137/343/25 138/347/25 170/348/25 169/344/25
f 151/345/7 152/349/7 184/350/7 183/346/7
f 138/347/26 139/351/26 171/352/26 170/348/26
f 152/349/8 153/353/8 185/354/8 184/350/8
f 139/351/27 140/355/27 172/356/27 171/352/27
f 153/353/9 154/357/9 186/358/9 185/354/9
f 140/355/28 141/359/28 173/360/28 172/356/28
f 154/357/10 155/361/10 187/362/10 186/358/10
f 141/359/29 142/363/29 174/364/29 173/360/29
f 155/361/11 156/365/11 188/366/11 187/362/11
f 142/363/30 143/367/30 175/368/30 174/364/30
f 129/328/17 130/369/17 162/370/17 161/329/17
f 156/365/12 157/371/12 189/372/12 188/366/12
f 143/367/32 144/373/32 176/374/32 175/368/32
f 130/369/18 131/375/18 163/376/18 162/370/18
f 157/371/13 158/377/13 190/378/13 189/372/13
f 144/373/33 145/379/33 177/380/33 176/374/33
f 131/375/19 132/381/19 164/382/19 163/376/19
f 158/377/14 159/383/14 191/384/14 190/378/14
f 145/379/1 146/385/1 178/386/1 177/380/1
f 132/381/20 133/231/20 165/234/20 164/382/20
f 159/383/15 160/327/15 192/330/15 191/384/15
f 146/385/2 147/331/2 179/334/2 178/386/2
