# Blender v2.76 (sub 0) OBJ File: 'log.blend'
# www.blender.org
mtllib log.mtl
o Plane
v 0.608683 0.121237 -2.643270
v 0.612687 0.084404 -2.933918
v 0.587234 0.318544 -2.668570
v 0.604679 0.158070 -2.352623
v 0.630132 -0.076070 -2.617971
v 0.595599 0.241592 -2.880231
v 0.589593 0.296842 -2.444260
v 0.627773 -0.054368 -2.842281
v 0.621767 0.000881 -2.406310
v 0.740305 0.247316 -2.569048
v 0.749098 0.166437 -2.409809
v 0.761927 0.048430 -2.543546
v 0.753134 0.129309 -2.702784
v 0.760737 0.059367 -2.656599
v 0.744522 0.208532 -2.675726
v 0.741495 0.236378 -2.455995
v 0.757710 0.087213 -2.436868
v 0.750569 0.152907 -2.516574
v 0.745102 0.203195 -2.523022
v 0.749548 0.162295 -2.442496
v 0.756036 0.102619 -2.510126
v 0.751589 0.143519 -2.590652
v 0.755434 0.108150 -2.567297
v 0.747234 0.183582 -2.576969
v 0.745703 0.197664 -2.465852
v 0.753903 0.122232 -2.456179
v 0.186867 0.687166 0.726164
v 0.221840 0.674933 0.435516
v -0.000472 0.752695 0.700864
v 0.151895 0.699399 1.016812
v 0.374207 0.621636 0.751464
v 0.072592 0.727138 0.489204
v 0.020134 0.745487 0.925175
v 0.353601 0.628844 0.527153
v 0.301143 0.647193 0.963125
v 0.129685 0.860228 0.800387
v 0.206479 0.833367 0.959625
v 0.318525 0.794174 0.825889
v 0.241731 0.821036 0.666650
v 0.308139 0.797807 0.712836
v 0.166510 0.847348 0.693709
v 0.140071 0.856596 0.913440
v 0.281700 0.807055 0.932567
v 0.219325 0.828873 0.852860
v 0.171577 0.845575 0.846412
v 0.210412 0.831991 0.926939
v 0.267073 0.812172 0.859309
v 0.228239 0.825756 0.778782
v 0.261821 0.814009 0.802138
v 0.190200 0.839061 0.792466
v 0.176829 0.843738 0.903583
v 0.248451 0.818685 0.913256
v 0.000000 0.000000 -4.004074
v -0.675316 0.000000 -4.004074
v 0.000000 -0.675316 -4.004074
v 0.675316 0.000000 -4.004074
v 0.000000 0.675316 -4.004074
v -0.506487 -0.506487 -4.004074
v 0.506487 -0.506487 -4.004074
v -0.506487 0.506487 -4.004074
v 0.506487 0.506487 -4.004074
v 0.000000 0.000000 1.507665
v -0.675316 0.000000 1.507665
v 0.000000 -0.675316 1.507665
v 0.675316 0.000000 1.507665
v 0.000000 0.675317 1.507665
v -0.506487 -0.506487 1.507665
v 0.506487 -0.506487 1.507665
v -0.506487 0.506488 1.507665
v 0.506487 0.506488 1.507665
v -0.520089 0.520089 -4.078084
v -0.693452 -0.000000 -4.078084
v -0.520089 -0.520089 -4.078084
v 0.000000 -0.693452 -4.078084
v 0.520089 -0.520089 -4.078084
v 0.693452 -0.000000 -4.078084
v 0.520089 0.520089 -4.078084
v 0.000000 0.693452 -4.078084
v -0.520089 0.520090 1.581676
v -0.693452 0.000000 1.581676
v -0.520089 -0.520089 1.581676
v 0.000000 -0.693452 1.581676
v 0.520089 -0.520089 1.581676
v 0.693452 0.000000 1.581676
v 0.520089 0.520090 1.581676
v 0.000000 0.693453 1.581676
v -0.520089 0.620089 -4.078084
v -0.693452 0.100000 -4.078084
v 0.693452 0.100000 -4.078084
v 0.520089 0.620089 -4.078084
v 0.000000 0.793452 -4.078084
v -0.520089 0.620090 1.581676
v -0.693452 0.100000 1.581676
v 0.693452 0.100000 1.581676
v 0.520089 0.620090 1.581676
v 0.000000 0.793453 1.581676
v -0.693452 -0.100000 -4.078084
v -0.520089 -0.620089 -4.078084
v -0.000000 -0.793452 -4.078084
v 0.520089 -0.620089 -4.078084
v 0.693452 -0.100000 -4.078084
v -0.693452 -0.100000 1.581676
v -0.520089 -0.620089 1.581676
v -0.000000 -0.793452 1.581676
v 0.520089 -0.620089 1.581676
v 0.693452 -0.100000 1.581676
v -0.688105 -0.085955 -2.663144
v -0.693452 0.000000 -1.248204
v -0.689114 -0.077444 0.166736
v 0.689114 0.077445 0.166736
v 0.693452 0.000000 -1.248204
v 0.688105 0.085955 -2.663144
v -0.700500 0.013274 -2.663144
v -0.693452 0.100000 -1.248204
v -0.700282 0.021930 0.166736
v -0.586087 0.558127 0.166736
v -0.520089 0.620089 -1.248204
v -0.592940 0.550841 -2.663144
v -0.088612 0.788489 0.166736
v 0.000000 0.793452 -1.248204
v -0.098350 0.787333 -2.663144
v 0.439217 0.679774 -2.663144
v 0.520089 0.620089 -1.248204
v 0.447584 0.674294 0.166736
v 0.677946 0.176819 0.166736
v 0.693452 0.100000 -1.248204
v 0.675709 0.185184 -2.663144
v -0.675709 -0.185184 -2.663144
v -0.693452 -0.100000 -1.248204
v -0.677946 -0.176819 0.166736
v 0.700282 -0.021930 0.166736
v 0.693452 -0.100000 -1.248204
v 0.700500 -0.013274 -2.663144
v 0.592940 -0.550841 -2.663144
v 0.520089 -0.620089 -1.248204
v 0.586087 -0.558126 0.166736
v 0.088612 -0.788488 0.166736
v -0.000000 -0.793452 -1.248204
v 0.098350 -0.787333 -2.663144
v -0.439217 -0.679774 -2.663144
v -0.520089 -0.620089 -1.248204
v -0.447584 -0.674293 0.166736
vt 0.642560 0.593900
vt 0.641313 0.594186
vt 0.641674 0.593314
vt 0.642192 0.592970
vt 0.643158 0.595448
vt 0.641813 0.595260
vt 0.643457 0.593102
vt 0.644022 0.594223
vt 0.642714 0.592862
vt 0.009793 0.664359
vt 0.008724 0.654021
vt 0.016715 0.660451
vt 0.017256 0.665679
vt 0.016436 0.647818
vt 0.020615 0.657314
vt 0.026878 0.647818
vt 0.033998 0.656088
vt 0.029497 0.661496
vt 0.025896 0.657314
vt 0.035068 0.666426
vt 0.027356 0.672629
vt 0.026138 0.669861
vt 0.030038 0.666724
vt 0.608095 0.580698
vt 0.631282 0.567725
vt 0.655349 0.561042
vt 0.681138 0.580032
vt 0.681138 0.614445
vt 0.661551 0.640334
vt 0.606614 0.615483
vt 0.632485 0.635083
vt 0.023376 0.663588
vt 0.020857 0.669861
vt 0.016914 0.672629
vt 0.217404 0.593898
vt 0.216157 0.594185
vt 0.216518 0.593312
vt 0.217036 0.592968
vt 0.218002 0.595446
vt 0.216657 0.595258
vt 0.218301 0.593100
vt 0.218867 0.594221
vt 0.217558 0.592861
vt 0.621168 0.537618
vt 0.620098 0.527280
vt 0.628090 0.533710
vt 0.628631 0.538938
vt 0.627810 0.521077
vt 0.631990 0.530574
vt 0.638252 0.521077
vt 0.645373 0.529348
vt 0.640871 0.534756
vt 0.637270 0.530573
vt 0.646443 0.539686
vt 0.638731 0.545888
vt 0.637512 0.543120
vt 0.641412 0.539984
vt 0.182939 0.580697
vt 0.206126 0.567723
vt 0.230194 0.561041
vt 0.255982 0.580031
vt 0.255982 0.614443
vt 0.236395 0.640332
vt 0.181458 0.615481
vt 0.207329 0.635081
vt 0.634751 0.536847
vt 0.632232 0.543120
vt 0.628289 0.545888
vt 0.519867 0.647030
vt 0.433879 0.647030
vt 0.455376 0.582539
vt 0.519867 0.561042
vt 0.347133 0.561042
vt 0.347133 0.647030
vt 0.282642 0.625533
vt 0.261145 0.561042
vt 0.433120 0.561042
vt 0.411623 0.625533
vt 0.584358 0.582539
vt 0.605855 0.647030
vt 0.094711 0.561071
vt 0.094711 0.647059
vt 0.030221 0.625562
vt 0.008724 0.561071
vt 0.347133 0.733777
vt 0.261145 0.733777
vt 0.282642 0.669286
vt 0.347133 0.647789
vt 0.411623 0.669286
vt 0.433120 0.733777
vt 0.180699 0.561071
vt 0.159202 0.625562
vt 0.549902 0.538922
vt 0.482281 0.545888
vt 0.480465 0.538949
vt 0.549902 0.531796
vt 0.250168 0.661019
vt 0.182189 0.661019
vt 0.181458 0.653930
vt 0.251263 0.653930
vt 0.617523 0.545888
vt 0.619339 0.538949
vt 0.175466 0.662755
vt 0.107487 0.662755
vt 0.106391 0.655666
vt 0.176196 0.655666
vt 0.104902 0.654907
vt 0.036923 0.654907
vt 0.035827 0.647818
vt 0.105632 0.647818
vt 0.643717 0.667717
vt 0.575738 0.667717
vt 0.575007 0.660628
vt 0.644812 0.660628
vt 0.342647 0.531796
vt 0.410268 0.538762
vt 0.410268 0.545888
vt 0.340831 0.538735
vt 0.549902 0.523911
vt 0.617523 0.516945
vt 0.619339 0.523884
vt 0.549902 0.531037
vt 0.327339 0.560266
vt 0.261145 0.538105
vt 0.273878 0.538122
vt 0.340071 0.560283
vt 0.638434 0.558727
vt 0.568629 0.558727
vt 0.564603 0.546648
vt 0.634408 0.546648
vt 0.089078 0.409235
vt 0.079306 0.538132
vt 0.066573 0.538149
vt 0.076345 0.409244
vt 0.192592 0.151443
vt 0.181461 0.022568
vt 0.194194 0.022550
vt 0.205325 0.151434
vt 0.247653 0.560265
vt 0.181458 0.538103
vt 0.194191 0.538120
vt 0.260385 0.560281
vt 0.261145 0.022568
vt 0.327336 0.000398
vt 0.340069 0.000380
vt 0.273878 0.022550
vt 0.340831 0.546648
vt 0.410636 0.546648
vt 0.414662 0.558727
vt 0.344857 0.558727
vt 0.169846 0.538134
vt 0.103652 0.560295
vt 0.090919 0.560312
vt 0.157113 0.538151
vt 0.410268 0.524048
vt 0.342644 0.530990
vt 0.340831 0.524050
vt 0.410271 0.516921
vt 0.505539 0.660628
vt 0.573518 0.660628
vt 0.574248 0.667717
vt 0.504443 0.667717
vt 0.477887 0.531037
vt 0.479705 0.524098
vt 0.434610 0.660628
vt 0.502589 0.660628
vt 0.503684 0.667717
vt 0.433879 0.667717
vt 0.107121 0.647818
vt 0.175101 0.647818
vt 0.176196 0.654907
vt 0.106391 0.654907
vt 0.482281 0.516945
vt 0.480465 0.523884
vt 0.036923 0.655666
vt 0.104902 0.655666
vt 0.105632 0.662755
vt 0.035827 0.662755
vt 0.477889 0.531796
vt 0.479705 0.538735
vt 0.928179 0.387513
vt 0.997984 0.387514
vt 0.988079 0.516409
vt 0.918274 0.516537
vt 0.434591 0.387202
vt 0.504396 0.387225
vt 0.493414 0.516162
vt 0.423609 0.516120
vt 0.682316 0.387322
vt 0.752121 0.387466
vt 0.741713 0.516451
vt 0.671908 0.516177
vt 0.517296 0.387232
vt 0.587100 0.387230
vt 0.576202 0.516154
vt 0.506397 0.516177
vt 0.272277 0.151446
vt 0.285010 0.151437
vt 0.013113 0.000398
vt 0.079304 0.022568
vt 0.066571 0.022550
vt 0.000380 0.000380
vt 0.251263 0.653171
vt 0.181458 0.653171
vt 0.185485 0.641092
vt 0.255290 0.641092
vt 0.494039 0.546648
vt 0.563844 0.546648
vt 0.559817 0.558727
vt 0.490012 0.558727
vt 0.013113 0.560293
vt 0.000380 0.560310
vt 0.433879 0.647789
vt 0.503684 0.647789
vt 0.507711 0.659869
vt 0.437906 0.659869
vt 0.351813 0.387202
vt 0.421618 0.387225
vt 0.410636 0.516162
vt 0.340831 0.516120
vt 0.764444 0.387322
vt 0.834249 0.387466
vt 0.823841 0.516451
vt 0.754036 0.516177
vt 0.846071 0.387513
vt 0.915876 0.387514
vt 0.905969 0.516410
vt 0.836164 0.516537
vt 0.600078 0.387231
vt 0.669883 0.387221
vt 0.658998 0.516146
vt 0.589194 0.516177
vt 0.179617 0.409236
vt 0.166884 0.409245
vt 0.587087 0.647789
vt 0.656892 0.647789
vt 0.652866 0.659869
vt 0.583061 0.659869
vt 0.485226 0.558727
vt 0.415421 0.558727
vt 0.419448 0.546648
vt 0.489253 0.546648
vt 0.103652 0.000398
vt 0.169842 0.022568
vt 0.157109 0.022549
vt 0.090919 0.000380
vt 0.582302 0.659869
vt 0.512497 0.659869
vt 0.508470 0.647789
vt 0.578275 0.647789
vt 0.247652 0.000398
vt 0.260385 0.000380
vt 0.180699 0.151467
vt 0.167966 0.151459
vt 0.169666 0.280352
vt 0.156933 0.280353
vt 0.589280 0.000380
vt 0.659085 0.000438
vt 0.671149 0.129374
vt 0.601344 0.129340
vt 0.658959 0.258298
vt 0.589154 0.258289
vt 0.837242 0.000380
vt 0.907045 0.000829
vt 0.917515 0.129769
vt 0.847710 0.129480
vt 0.905975 0.258619
vt 0.836170 0.258488
vt 0.754036 0.000683
vt 0.823840 0.000380
vt 0.835405 0.129386
vt 0.765600 0.129530
vt 0.824373 0.258439
vt 0.754568 0.258424
vt 0.340831 0.000427
vt 0.410636 0.000380
vt 0.422850 0.129326
vt 0.353045 0.129348
vt 0.410718 0.258280
vt 0.340914 0.258278
vt 0.271174 0.409228
vt 0.283907 0.409237
vt 0.261323 0.280336
vt 0.274055 0.280337
vt 0.506541 0.000380
vt 0.576346 0.000446
vt 0.588395 0.129383
vt 0.518590 0.129342
vt 0.576191 0.258306
vt 0.506386 0.258289
vt 0.671908 0.000683
vt 0.741712 0.000380
vt 0.753277 0.129386
vt 0.683472 0.129530
vt 0.742245 0.258439
vt 0.672440 0.258424
vt 0.423609 0.000427
vt 0.493414 0.000380
vt 0.505627 0.129326
vt 0.435822 0.129348
vt 0.493496 0.258280
vt 0.423691 0.258278
vt 0.919347 0.000380
vt 0.989150 0.000828
vt 0.999620 0.129769
vt 0.929816 0.129479
vt 0.988082 0.258618
vt 0.918277 0.258488
vt 0.191489 0.409225
vt 0.204222 0.409233
vt 0.181638 0.280332
vt 0.194371 0.280333
vt 0.090160 0.151467
vt 0.077427 0.151458
vt 0.079127 0.280351
vt 0.066394 0.280352
vn -0.994100 -0.108100 -0.000000
vn 0.994100 0.108100 -0.000000
vn 0.368300 -0.264400 0.891300
vn 0.374200 0.923400 0.085400
vn 0.798500 0.270500 -0.537800
vn 0.558500 -0.772300 0.302800
vn 0.279700 0.550000 0.786900
vn 0.544000 0.795200 -0.267600
vn 0.851900 -0.220900 -0.474800
vn 0.706900 -0.703200 -0.075500
vn -0.330200 -0.943900 0.000000
vn 0.330200 0.943900 0.000000
vn 0.397100 0.218700 0.891300
vn -0.672600 0.735100 0.085400
vn 0.099400 0.837200 -0.537800
vn 0.937400 0.171900 0.302800
vn -0.376200 0.489200 0.786900
vn -0.483800 0.833300 -0.267600
vn 0.565900 0.674000 -0.474800
vn 0.939000 0.335600 -0.075500
vn 0.000000 0.000000 -1.000000
vn 0.000000 0.000000 1.000000
vn 0.924000 0.308000 -0.226400
vn -0.308000 0.924000 0.226400
vn 0.924000 -0.308000 -0.226400
vn 0.308000 -0.924000 -0.226400
vn 0.308000 0.924000 0.226400
vn -0.308000 -0.924000 -0.226400
vn 0.924000 0.308000 0.226400
vn -0.924000 -0.308000 -0.226400
vn -0.998400 -0.055900 0.004000
vn -0.998100 -0.062100 0.004400
vn -0.924000 0.308000 0.226400
vn 0.308000 0.924000 -0.226400
vn -0.924000 -0.308000 0.226400
vn -0.308000 0.924000 -0.226400
vn -0.308000 -0.924000 0.226400
vn -0.924000 0.308000 -0.226400
vn 0.308000 -0.924000 0.226400
vn 0.924000 -0.308000 0.226400
vn -0.964800 0.262700 0.011800
vn -0.368800 0.929500 -0.001800
vn 0.929400 0.368800 -0.011800
vn 0.262700 0.964900 0.001800
vn 0.998100 0.062100 0.004400
vn 0.368800 -0.929500 -0.001800
vn -0.929400 -0.368800 -0.011800
vn 0.964800 -0.262700 0.011800
vn -0.262700 -0.964900 0.001800
vn 0.998400 0.055900 0.004000
vn 0.998100 0.062100 -0.004400
vn 0.998400 0.055900 -0.004000
vn -0.256700 -0.966500 -0.002000
vn -0.256700 -0.966500 0.002000
vn -0.262700 -0.964900 -0.001800
vn 0.966400 -0.256700 -0.013100
vn 0.966400 -0.256700 0.013100
vn 0.964800 -0.262700 -0.011800
vn -0.927100 -0.374500 0.013100
vn -0.927100 -0.374500 -0.013100
vn -0.929400 -0.368800 0.011800
vn 0.374500 -0.927200 0.002000
vn 0.374500 -0.927200 -0.002000
vn 0.368800 -0.929500 0.001800
vn 0.256700 0.966500 -0.002000
vn 0.256700 0.966500 0.002000
vn 0.262700 0.964900 -0.001800
vn 0.927100 0.374500 0.013100
vn 0.927100 0.374500 -0.013100
vn 0.929400 0.368800 0.011800
vn -0.374500 0.927200 0.002000
vn -0.374500 0.927200 -0.002000
vn -0.368800 0.929500 0.001800
vn -0.966400 0.256700 -0.013100
vn -0.966400 0.256700 0.013100
vn -0.964800 0.262700 -0.011800
vn -0.998400 -0.055900 -0.004000
vn -0.998100 -0.062100 -0.004400
usemtl Material
s off
f 1/1/1 3/2/1 6/3/1 2/4/1
f 1/1/1 4/5/1 7/6/1 3/2/1
f 1/1/1 5/7/1 9/8/1 4/5/1
f 1/1/1 2/4/1 8/9/1 5/7/1
f 12/10/2 14/11/2 23/12/2 21/13/2
f 14/11/2 13/14/2 22/15/2 23/12/2
f 15/16/2 10/17/2 19/18/2 24/19/2
f 16/20/2 11/21/2 20/22/2 25/23/2
f 4/5/3 9/8/3 17/24/3 11/25/3
f 3/2/4 7/6/4 16/26/4 10/27/4
f 2/4/5 6/3/5 15/28/5 13/29/5
f 9/8/6 5/7/6 12/30/6 17/24/6
f 7/6/7 4/5/7 11/25/7 16/26/7
f 6/3/8 3/2/8 10/27/8 15/28/8
f 8/9/9 2/4/9 13/29/9 14/31/9
f 5/7/10 8/9/10 14/31/10 12/30/10
f 18/32/2 22/15/2 24/19/2 19/18/2
f 18/32/2 19/18/2 25/23/2 20/22/2
f 18/32/2 20/22/2 26/33/2 21/13/2
f 18/32/2 21/13/2 23/12/2 22/15/2
f 11/21/2 17/34/2 26/33/2 20/22/2
f 10/17/2 16/20/2 25/23/2 19/18/2
f 13/14/2 15/16/2 24/19/2 22/15/2
f 17/34/2 12/10/2 21/13/2 26/33/2
f 27/35/11 29/36/11 32/37/11 28/38/11
f 27/35/11 30/39/11 33/40/11 29/36/11
f 27/35/11 31/41/11 35/42/11 30/39/11
f 27/35/11 28/38/11 34/43/11 31/41/11
f 38/44/12 40/45/12 49/46/12 47/47/12
f 40/45/12 39/48/12 48/49/12 49/46/12
f 41/50/12 36/51/12 45/52/12 50/53/12
f 42/54/12 37/55/12 46/56/12 51/57/12
f 30/39/13 35/42/13 43/58/13 37/59/13
f 29/36/14 33/40/14 42/60/14 36/61/14
f 28/38/15 32/37/15 41/62/15 39/63/15
f 35/42/16 31/41/16 38/64/16 43/58/16
f 33/40/17 30/39/17 37/59/17 42/60/17
f 32/37/18 29/36/18 36/61/18 41/62/18
f 34/43/19 28/38/19 39/63/19 40/65/19
f 31/41/20 34/43/20 40/65/20 38/64/20
f 44/66/12 48/49/12 50/53/12 45/52/12
f 44/66/12 45/52/12 51/57/12 46/56/12
f 44/66/12 46/56/12 52/67/12 47/47/12
f 44/66/12 47/47/12 49/46/12 48/49/12
f 37/55/12 43/68/12 52/67/12 46/56/12
f 36/51/12 42/54/12 51/57/12 45/52/12
f 39/48/12 41/50/12 50/53/12 48/49/12
f 43/68/12 38/44/12 47/47/12 52/67/12
f 53/69/21 55/70/21 58/71/21 54/72/21
f 53/73/21 56/74/21 59/75/21 55/76/21
f 53/73/21 57/77/21 61/78/21 56/74/21
f 53/69/21 54/72/21 60/79/21 57/80/21
f 62/81/22 63/82/22 67/83/22 64/84/22
f 62/85/22 64/86/22 68/87/22 65/88/22
f 62/85/22 65/88/22 70/89/22 66/90/22
f 62/81/22 66/91/22 69/92/22 63/82/22
f 54/93/23 58/94/23 73/95/23 72/96/23
f 68/97/24 64/98/24 82/99/24 83/100/24
f 60/101/25 54/93/25 72/96/25 71/102/25
f 57/103/26 60/104/26 71/105/26 78/106/26
f 64/107/27 67/108/27 81/109/27 82/110/27
f 61/111/28 57/112/28 78/113/28 77/114/28
f 67/115/29 63/116/29 80/117/29 81/118/29
f 56/119/30 61/120/30 77/121/30 76/122/30
f 85/123/22 84/124/22 94/125/22 95/126/22
f 77/127/21 78/128/21 91/129/21 90/130/21
f 109/131/31 80/132/31 93/133/31 115/134/31
f 107/135/32 72/136/32 97/137/32 128/138/32
f 81/139/22 80/140/22 102/141/22 103/142/22
f 76/143/21 77/144/21 90/145/21 89/146/21
f 73/147/21 74/148/21 99/149/21 98/150/21
f 84/151/22 83/152/22 105/153/22 106/154/22
f 65/155/33 68/156/33 83/157/33 84/158/33
f 58/159/34 55/160/34 74/161/34 73/162/34
f 70/163/35 65/155/35 84/158/35 85/164/35
f 55/165/36 59/166/36 75/167/36 74/168/36
f 66/169/37 70/170/37 85/171/37 86/172/37
f 59/173/38 56/119/38 76/122/38 75/174/38
f 69/175/39 66/176/39 86/177/39 79/178/39
f 63/116/40 69/179/40 79/180/40 80/117/40
f 116/181/41 115/182/41 93/183/41 92/184/41
f 119/185/42 116/186/42 92/187/42 96/188/42
f 125/189/43 124/190/43 95/191/43 94/192/43
f 124/193/44 119/194/44 96/195/44 95/196/44
f 112/197/45 76/143/45 89/146/45 127/198/45
f 71/199/21 72/200/21 88/201/21 87/202/21
f 78/203/21 71/204/21 87/205/21 91/206/21
f 86/207/22 85/208/22 95/209/22 96/210/22
f 80/132/22 79/211/22 92/212/22 93/133/22
f 79/213/22 86/214/22 96/215/22 92/216/22
f 137/217/46 136/218/46 105/219/46 104/220/46
f 130/221/47 142/222/47 103/223/47 102/224/47
f 136/225/48 131/226/48 106/227/48 105/228/48
f 142/229/49 137/230/49 104/231/49 103/232/49
f 110/233/50 84/151/50 106/154/50 131/234/50
f 74/235/21 75/236/21 100/237/21 99/238/21
f 82/239/22 81/240/22 103/241/22 104/242/22
f 75/243/21 76/244/21 101/245/21 100/246/21
f 83/247/22 82/248/22 104/249/22 105/250/22
f 72/136/21 73/251/21 98/252/21 97/137/21
f 76/244/51 112/253/51 133/254/51 101/245/51
f 112/253/45 111/255/45 132/256/45 133/254/45
f 111/255/52 110/233/52 131/234/52 132/256/52
f 98/257/53 99/258/53 139/259/53 140/260/53
f 140/260/54 139/259/54 138/261/54 141/262/54
f 141/262/55 138/261/55 137/230/55 142/229/55
f 100/263/56 101/264/56 133/265/56 134/266/56
f 134/266/57 133/265/57 132/267/57 135/268/57
f 135/268/58 132/267/58 131/226/58 136/225/58
f 97/269/59 98/270/59 140/271/59 128/272/59
f 128/272/60 140/271/60 141/273/60 129/274/60
f 129/274/61 141/273/61 142/222/61 130/221/61
f 99/275/62 100/276/62 134/277/62 139/278/62
f 139/278/63 134/277/63 135/279/63 138/280/63
f 138/280/64 135/279/64 136/218/64 137/217/64
f 84/124/52 110/281/52 125/282/52 94/125/52
f 110/281/50 111/283/50 126/284/50 125/282/50
f 111/283/51 112/197/51 127/198/51 126/284/51
f 90/285/65 91/286/65 121/287/65 122/288/65
f 122/288/66 121/287/66 120/289/66 123/290/66
f 123/290/67 120/289/67 119/194/67 124/193/67
f 89/291/68 90/292/68 122/293/68 127/294/68
f 127/294/69 122/293/69 123/295/69 126/296/69
f 126/296/70 123/295/70 124/190/70 125/189/70
f 91/297/71 87/298/71 118/299/71 121/300/71
f 121/300/72 118/299/72 117/301/72 120/302/72
f 120/302/73 117/301/73 116/186/73 119/185/73
f 87/303/74 88/304/74 113/305/74 118/306/74
f 118/306/75 113/305/75 114/307/75 117/308/75
f 117/308/76 114/307/76 115/182/76 116/181/76
f 80/140/77 109/309/77 130/310/77 102/141/77
f 109/309/31 108/311/31 129/312/31 130/310/31
f 108/311/78 107/135/78 128/138/78 129/312/78
f 72/200/78 107/313/78 113/314/78 88/201/78
f 107/313/32 108/315/32 114/316/32 113/314/32
f 108/315/77 109/131/77 115/134/77 114/316/77
