# Blender v2.78 (sub 0) OBJ File: ''
# www.blender.org
mtllib Rock5.mtl
o Cube.008_Cube.009
v -1.248804 1.452948 0.755355
v -1.338382 0.836188 0.311492
v -1.847300 2.334328 0.020733
v -1.808078 1.887292 -0.661924
v -0.846708 1.257297 -0.361125
v -0.833924 1.265579 0.371687
v -1.924486 1.172518 -0.756836
v -1.107881 2.554052 0.387846
v -1.148382 2.144745 0.796243
v -1.876418 0.881554 0.294515
v -2.322491 1.211243 -0.199487
v -1.678579 2.320899 0.482543
v -0.965429 2.468124 -0.182304
v -0.916834 1.821976 -0.547238
v -1.391290 1.225991 -0.826260
v -1.196417 0.779495 -0.266700
v -0.578813 1.885178 0.066173
v -0.704091 1.999134 0.578866
v -1.937897 1.671667 0.628228
v -2.035286 1.521848 -1.385611
v 0.036699 0.113052 -1.734765
v -0.412880 -1.034673 -0.958523
v -3.190733 -0.575008 0.232877
v -3.205919 0.689115 -0.173639
v -2.760473 -1.152777 -1.156384
v -3.136458 0.101616 -1.708881
v -1.241349 -0.849892 -2.503003
v -0.394847 1.130041 -1.404769
v -0.652721 0.271984 0.226334
v -1.634676 -0.482165 0.671840
v -1.963159 -1.332245 -0.001552
v -2.257951 0.593218 0.689919
v -2.194255 1.327662 -0.094871
v -1.345089 0.709563 -2.597505
v -0.341948 0.569772 -0.085975
v -0.544751 -0.726513 0.390118
v 1.115083 1.377003 1.586856
v 0.760105 0.318457 2.573968
v -1.228333 -0.084158 1.811444
v -1.192771 0.290060 0.528284
v 0.577649 -0.988114 2.387454
v -0.031382 2.314347 1.101531
v -0.147721 1.803266 0.183248
v 0.416428 -0.943550 0.402587
v 1.332989 -0.865039 1.397424
v 0.847402 1.666637 0.780950
v -0.366944 1.970562 2.072639
v -0.820541 0.736233 2.405899
v -0.329044 -0.649509 2.574187
v -0.864567 -1.025392 1.389432
v -1.331851 1.317234 1.382844
v -1.015590 1.689414 0.527505
v 0.966463 0.510411 0.192723
vn 0.4067 -0.1126 0.9066
vn 0.4021 -0.5726 0.7145
vn -0.1906 -0.0303 0.9812
vn -0.8465 0.4219 -0.3249
vn -0.1427 0.1531 -0.9779
vn -0.2465 0.8042 -0.5408
vn 0.6460 -0.1654 -0.7452
vn 0.5653 -0.5374 -0.6257
vn 0.8769 -0.0487 -0.4782
vn 0.9283 -0.2437 0.2810
vn 0.6158 -0.7550 0.2252
vn -0.3514 0.9233 0.1552
vn -0.1734 0.7042 0.6885
vn 0.8167 0.5725 0.0723
vn -0.0742 -0.5754 0.8145
vn 0.5636 -0.3154 0.7635
vn -0.2857 -0.3916 0.8746
vn -0.7983 -0.2860 0.5300
vn -0.9109 0.3395 0.2344
vn -0.8516 0.4127 0.3231
vn 0.1465 0.4948 -0.8566
vn 0.1440 0.3232 -0.9353
vn 0.8110 0.3328 -0.4812
vn 0.9226 -0.3856 -0.0117
vn 0.8062 -0.5916 -0.0074
vn -0.7897 0.2054 -0.5782
vn -0.2567 -0.9275 -0.2719
vn -0.1904 0.9626 -0.1926
vn -0.3895 0.3470 0.8532
vn 0.5030 0.5850 0.6362
vn 0.7866 0.6085 0.1048
vn -0.7291 0.6275 -0.2731
vn 0.6939 -0.5697 -0.4404
vn 0.9312 -0.1359 0.3384
vn -0.1933 -0.5623 0.8041
vn -0.2586 -0.1659 0.9516
vn -0.4652 0.6649 0.5845
vn -0.9991 -0.0236 -0.0362
vn -0.5313 -0.4698 -0.7050
vn -0.4857 -0.8502 0.2032
vn 0.3260 0.6769 0.6599
vn -0.5361 0.8419 0.0606
vn -0.5135 0.5484 -0.6600
vn -0.4202 -0.0827 -0.9037
vn 0.5243 -0.0167 -0.8513
vn 0.6045 0.4661 -0.6460
vn 0.6329 -0.4531 0.6278
vn 0.4855 -0.6504 0.5842
vn 0.3033 0.1600 0.9394
vn -0.6431 0.2274 0.7312
vn -0.9283 -0.3422 -0.1452
vn 0.9100 0.2900 0.2964
vn 0.2007 0.8628 -0.4640
vn 0.2307 0.9576 0.1725
vn 0.4287 0.7699 0.4728
vn 0.0639 -0.9832 -0.1711
vn -0.3852 0.2543 -0.8871
vn -0.5221 -0.2209 -0.8238
vn 0.2127 0.1763 -0.9611
vn 0.9188 0.0563 0.3908
vn 0.1417 -0.1593 0.9770
vn 0.4476 0.5250 0.7239
vn -0.6955 -0.1616 0.7002
vn -0.7216 -0.4956 0.4834
vn -0.8717 0.0833 0.4830
vn -0.9470 0.1197 -0.2981
vn -0.7990 -0.4560 -0.3921
vn 0.6103 0.7881 0.0805
vn 0.3978 0.7793 -0.4841
vn -0.6118 0.7827 0.1144
vn -0.0635 -0.3353 -0.9400
vn -0.5999 0.0755 -0.7965
vn 0.1944 -0.2118 -0.9578
vn 0.7014 -0.3546 -0.6183
vn 0.9789 0.1097 -0.1726
vn 0.9470 0.2177 -0.2363
vn -0.0307 0.2710 0.9621
vn -0.0813 0.0917 0.9925
vn -0.6980 0.4142 0.5841
vn -0.9945 -0.0899 -0.0538
vn -0.9429 -0.3119 -0.1171
vn 0.7915 -0.1933 0.5798
vn -0.0347 -0.9994 0.0064
vn 0.4538 0.7790 0.4326
vn 0.5073 0.4317 -0.7459
vn -0.2856 0.8523 -0.4382
vn -0.5712 0.8157 0.0914
vn -0.6698 -0.3791 -0.6385
vn -0.1898 -0.9610 0.2010
vn 0.0317 0.1651 0.9858
vn -0.5532 -0.3790 0.7419
vn -0.0574 0.6335 -0.7716
vn -0.1183 0.9655 -0.2322
usemtl None
s off
f 1//1 18//1 9//1
f 2//2 6//2 1//2
f 1//3 9//3 19//3
f 3//4 4//4 11//4
f 15//5 7//5 4//5
f 4//6 3//6 13//6
f 5//7 15//7 14//7
f 16//8 15//8 5//8
f 5//9 14//9 17//9
f 17//10 18//10 6//10
f 6//11 2//11 16//11
f 8//12 3//12 12//12
f 8//13 12//13 9//13
f 18//14 17//14 13//14
f 1//15 10//15 2//15
f 1//16 6//16 18//16
f 1//17 19//17 10//17
f 10//18 19//18 11//18
f 3//19 11//19 19//19
f 3//20 19//20 12//20
f 4//21 13//21 14//21
f 4//22 14//22 15//22
f 17//23 14//23 13//23
f 5//24 17//24 6//24
f 5//25 6//25 16//25
f 7//26 11//26 4//26
f 10//27 11//27 7//27 15//27 16//27 2//27
f 8//28 13//28 3//28
f 9//29 12//29 19//29
f 8//30 9//30 18//30
f 8//31 18//31 13//31
f 26//32 24//32 20//32
f 21//33 22//33 27//33
f 22//34 21//34 29//34
f 23//35 31//35 30//35
f 23//36 30//36 32//36
f 32//37 33//37 24//37
f 24//38 26//38 23//38
f 25//39 26//39 27//39
f 25//40 31//40 23//40
f 33//41 32//41 29//41
f 20//42 24//42 33//42
f 20//43 34//43 26//43
f 26//44 34//44 27//44
f 21//45 27//45 34//45
f 21//46 34//46 28//46
f 22//47 29//47 30//47
f 22//48 30//48 31//48
f 32//49 30//49 29//49
f 23//50 32//50 24//50
f 25//51 23//51 26//51
f 28//52 29//52 21//52
f 20//53 28//53 34//53
f 28//54 20//54 33//54
f 28//55 33//55 29//55
f 22//56 31//56 25//56 27//56
f 35//57 52//57 43//57
f 36//58 40//58 35//58
f 35//59 43//59 53//59
f 37//60 38//60 45//60
f 49//61 41//61 38//61
f 38//62 37//62 47//62
f 39//63 49//63 48//63
f 50//64 49//64 39//64
f 39//65 48//65 51//65
f 51//66 52//66 40//66
f 40//67 36//67 50//67
f 42//68 37//68 46//68
f 42//69 46//69 43//69
f 52//70 51//70 47//70
f 35//71 44//71 36//71
f 35//72 40//72 52//72
f 35//73 53//73 44//73
f 44//74 53//74 45//74
f 37//75 45//75 53//75
f 37//76 53//76 46//76
f 38//77 47//77 48//77
f 38//78 48//78 49//78
f 51//79 48//79 47//79
f 39//80 51//80 40//80
f 39//81 40//81 50//81
f 41//82 45//82 38//82
f 44//83 45//83 41//83 49//83 50//83 36//83
f 42//84 47//84 37//84
f 43//85 46//85 53//85
f 42//86 43//86 52//86
f 42//87 52//87 47//87
f 35//88 44//88 36//88 50//88 39//88 40//88
f 22//89 44//89 36//89 30//89
f 40//90 29//90 30//90 36//90
f 22//91 44//91 35//91 29//91
f 31//92 30//92 36//92
f 44//93 22//93 31//93 36//93
